<?xml version="1.0" encoding="UTF-8" standalone="no"?>
<!-- Created with Inkscape (http://www.inkscape.org/) -->

<svg
   xmlns:dc="http://purl.org/dc/elements/1.1/"
   xmlns:cc="http://creativecommons.org/ns#"
   xmlns:rdf="http://www.w3.org/1999/02/22-rdf-syntax-ns#"
   xmlns:svg="http://www.w3.org/2000/svg"
   xmlns="http://www.w3.org/2000/svg"
   xmlns:sodipodi="http://sodipodi.sourceforge.net/DTD/sodipodi-0.dtd"
   xmlns:inkscape="http://www.inkscape.org/namespaces/inkscape"
   width="30"
   height="30"
   viewBox="0 0 7.9374 7.9374"
   version="1.1"
   id="svg4554"
   inkscape:version="0.92.4 (5da689c313, 2019-01-14)"
   sodipodi:docname="search.svg"
   inkscape:export-filename="C:\Users\jacks\Sweng\NewChuseMaster\icons\search.png"
   inkscape:export-xdpi="96"
   inkscape:export-ydpi="96">
  <defs
     id="defs4548" />
  <sodipodi:namedview
     id="base"
     pagecolor="#ffffff"
     bordercolor="#666666"
     borderopacity="1.0"
     inkscape:pageopacity="0.0"
     inkscape:pageshadow="2"
     inkscape:zoom="22.4"
     inkscape:cx="6.7195138"
     inkscape:cy="14.482046"
     inkscape:document-units="px"
     inkscape:current-layer="layer1"
     showgrid="false"
     units="px"
     inkscape:window-width="1920"
     inkscape:window-height="1001"
     inkscape:window-x="-9"
     inkscape:window-y="-9"
     inkscape:window-maximized="1" />
  <metadata
     id="metadata4551">
    <rdf:RDF>
      <cc:Work
         rdf:about="">
        <dc:format>image/svg+xml</dc:format>
        <dc:type
           rdf:resource="http://purl.org/dc/dcmitype/StillImage" />
        <dc:title></dc:title>
      </cc:Work>
    </rdf:RDF>
  </metadata>
  <g
     inkscape:label="Layer 1"
     inkscape:groupmode="layer"
     id="layer1"
     transform="translate(0,-289.05883)">
    <path
       style="fill:#000000;stroke-width:0.25851154"
       d="m 5.2089187,289.27152 a 2.5158711,2.5158711 0 0 0 -2.5157984,2.51579 2.5158711,2.5158711 0 0 0 2.5157984,2.5158 2.5158711,2.5158711 0 0 0 2.5157985,-2.5158 2.5158711,2.5158711 0 0 0 -2.5157985,-2.51579 z m 0,0.69863 a 1.8170179,1.8170179 0 0 1 1.8171638,1.81716 1.8170179,1.8170179 0 0 1 -1.8171638,1.81716 1.8170179,1.8170179 0 0 1 -1.8171637,-1.81716 1.8170179,1.8170179 0 0 1 1.8171637,-1.81716 z"
       id="path4556"
       inkscape:connector-curvature="0" />
    <rect
       style="fill:#000000;stroke-width:0.23176017"
       id="rect4561"
       width="4.6558957"
       height="0.93117929"
       x="-203.51202"
       y="204.1154"
       transform="matrix(0.6867376,-0.7269054,0.6867376,0.7269054,0,0)" />
  </g>
</svg>
